Coordinates
version=1
nRows=14
nColumns=40
inDegrees=yes

Units are S.I. units (second, meters, Newtons, ...)
Angles are in degrees.

endheader
time	pelvis_tilt	pelvis_list	pelvis_rotation	pelvis_tx	pelvis_ty	pelvis_tz	hip_flexion_r	hip_adduction_r	hip_rotation_r	knee_angle_r	knee_angle_r_beta	ankle_angle_r	subtalar_angle_r	mtp_angle_r	hip_flexion_l	hip_adduction_l	hip_rotation_l	knee_angle_l	knee_angle_l_beta	ankle_angle_l	subtalar_angle_l	mtp_angle_l	lumbar_extension	lumbar_bending	lumbar_rotation	arm_flex_r	arm_add_r	arm_rot_r	elbow_flex_r	pro_sup_r	wrist_flex_r	wrist_dev_r	arm_flex_l	arm_add_l	arm_rot_l	elbow_flex_l	pro_sup_l	wrist_flex_l	wrist_dev_l
     39.23000000	     -6.29015018	     -4.88234732	     -2.20399501	      0.95202191	      0.92292414	      0.42930528	     11.36723177	     -6.70413973	     -5.52371184	     44.68332438	     44.68332438	      2.37827858	    -10.08272966	    -17.61556295	     20.57768245	     -4.49412778	     -1.25350898	     28.92458769	     28.92458769	     16.35141863	    -16.08821893	      7.41717326	     -8.51303385	      4.05346841	      3.67130508	     18.35758950	    -11.85904207	    -12.57585874	     31.91017910	     46.00825970	      0.00000000	      0.00000000	     19.75293620	    -14.26237467	      7.99049200	     34.72256558	     45.93222351	      0.00000000	      0.00000000
     39.24864286	     -6.33704537	     -4.98143146	     -2.72273338	      0.95037014	      0.92136517	      0.42811006	     13.80689929	     -6.71412593	     -4.69660123	     48.57073106	     48.57073106	      1.23925497	    -11.58582636	    -17.05590830	     20.65999406	     -4.63406953	     -1.57207620	     29.70496595	     29.70496595	     16.90799992	    -16.32721449	      7.10869091	     -8.62590462	      4.25702310	      3.46539044	     15.85326251	    -11.80668122	    -12.54946863	     30.47576555	     46.05008706	      0.00000000	      0.00000000	     21.13350624	    -14.62328011	      7.69394249	     35.63197076	     45.98982152	      0.00000000	      0.00000000
     39.26728571	     -6.31614205	     -5.21117428	     -3.25420927	      0.94877931	      0.92010591	      0.42715959	     16.15834610	     -6.38836278	     -3.78282029	     52.39537036	     52.39537036	      1.86427325	    -11.99300530	    -11.17428441	     20.65165517	     -4.96435263	     -1.94937547	     30.51892341	     30.51892341	     17.73352643	    -16.27993483	      7.27447642	     -8.86298970	      4.57828301	      3.21633536	     13.72986328	    -11.82493203	    -12.34929153	     27.89095150	     46.15799486	      0.00000000	      0.00000000	     22.14522536	    -15.03127023	      6.47318057	     37.68688951	     46.15105515	      0.00000000	      0.00000000
     39.28592857	     -6.39851724	     -5.33355489	     -3.84953018	      0.94721683	      0.91898514	      0.42628980	     18.31622836	     -6.12075280	     -2.98505798	     55.28524288	     55.28524288	      1.11023849	    -13.30418566	     -9.92265788	     20.56196719	     -5.16095335	     -2.35698322	     30.97584651	     30.97584651	     18.24383518	    -16.51213851	      7.08363336	     -8.93859406	      4.83964257	      3.33461955	     11.10314096	    -11.99753194	    -12.30544741	     26.38555141	     46.20457301	      0.00000000	      0.00000000	     23.51615849	    -15.21674002	      5.98814881	     38.88959690	     46.23002903	      0.00000000	      0.00000000
     39.30457143	     -6.29216856	     -5.42298841	     -4.40390268	      0.94573775	      0.91860327	      0.42562080	     20.21731428	     -5.85721352	     -2.27852500	     57.89970475	     57.89970475	      2.48046759	    -12.91334222	     -3.73853472	     20.17402825	     -5.34888461	     -2.83042117	     31.27821913	     31.27821913	     18.77148994	    -16.35322606	      7.12799682	     -9.34085464	      4.98590076	      2.99865959	      8.95422506	    -11.99587014	    -12.15463332	     24.54360773	     46.29346841	      0.00000000	      0.00000000	     24.41531557	    -15.59872137	      4.15310402	     40.87526043	     46.44598010	      0.00000000	      0.00000000
     39.32321429	     -6.26867379	     -5.48097390	     -4.98732545	      0.94436983	      0.91869570	      0.42518311	     21.76387472	     -5.65204306	     -1.84885870	     59.24798196	     59.24798196	      2.24364839	    -13.42243063	     -3.54483185	     19.66189735	     -5.47281707	     -3.29260630	     31.18147864	     31.18147864	     19.05533261	    -16.45378746	      7.07639291	     -9.53013696	      5.15163616	      2.47887930	      6.76847532	    -12.02290395	    -12.17981474	     23.62343950	     46.31942297	      0.00000000	      0.00000000	     25.50332983	    -16.37485780	      3.77221466	     41.46720914	     46.50109813	      0.00000000	      0.00000000
     39.34185714	     -6.43800149	     -5.49662088	     -5.68934841	      0.94283806	      0.91914410	      0.42520889	     23.43344334	     -5.23534715	     -1.20048988	     59.96335209	     59.96335209	      2.44661235	    -14.13749402	     -2.65545444	     19.20610964	     -5.63759773	     -3.96095344	     30.79401911	     30.79401911	     19.23096626	    -16.35055068	      7.07430995	     -9.60745591	      5.27515878	      2.95409699	      4.35062147	    -12.27212135	    -12.16964754	     22.41851411	     46.36043969	      0.00000000	      0.00000000	     26.62536155	    -16.22680301	      3.03323961	     42.98281102	     46.59999729	      0.00000000	      0.00000000
     39.36050000	     -6.54155919	     -5.59494992	     -6.35535843	      0.94145689	      0.92030756	      0.42554963	     24.79642199	     -4.83443201	     -0.93260450	     59.93612156	     59.93612156	      3.86297285	    -13.84019105	      0.19258180	     18.49125196	     -5.89277987	     -4.66657798	     30.07171766	     30.07171766	     19.20364692	    -16.15284703	      6.77451417	     -9.76531691	      5.49213770	      2.56027890	      2.33065966	    -12.34627646	    -12.30520901	     22.20043862	     46.41982526	      0.00000000	      0.00000000	     26.68776702	    -16.32186846	     -0.49552133	     45.64420083	     46.94764457	      0.00000000	      0.00000000
     39.37914286	     -6.67324643	     -5.62106254	     -7.04646197	      0.94006745	      0.92204480	      0.42620974	     25.86269722	     -4.48941558	     -0.76576328	     58.81007953	     58.81007953	      4.54518778	    -13.82055158	     -0.00157800	     17.61817312	     -6.04760281	     -5.39803065	     28.98739817	     28.98739817	     19.12227155	    -15.93156019	      6.94714328	     -9.85043175	      5.60408581	      2.61349390	      0.41972912	    -12.49785548	    -12.31200709	     21.46747263	     46.44668671	      0.00000000	      0.00000000	     27.53466665	    -16.54874464	     -1.13096774	     46.60340404	     47.01924563	      0.00000000	      0.00000000
     39.39778571	     -6.92057204	     -5.69543163	     -7.74285750	      0.93863688	      0.92400188	      0.42725512	     26.73872885	     -4.07585701	     -0.78170872	     56.70733656	     56.70733656	      4.91402904	    -13.77117020	     -1.68400637	     16.74158452	     -6.28108930	     -6.18073416	     27.65099760	     27.65099760	     18.71590509	    -15.65153109	      6.50575984	     -9.84969802	      5.79317457	      2.39413270	     -1.58164254	    -12.61413653	    -12.46933153	     22.05659578	     46.46160310	      0.00000000	      0.00000000	     27.58585861	    -16.55157079	     -3.88734724	     48.91566596	     47.26154493	      0.00000000	      0.00000000
     39.41642857	     -7.20237179	     -5.75797809	     -8.43569659	      0.93717684	      0.92621496	      0.42863963	     27.41465578	     -3.64797565	     -0.91910802	     53.85025420	     53.85025420	      5.82732010	    -13.12361835	     -2.14429602	     15.79547467	     -6.48665224	     -6.96071639	     26.12601687	     26.12601687	     18.48676160	    -15.23836832	      6.78888330	     -9.75629879	      5.96589850	      2.40618997	     -3.14651062	    -12.74212228	    -12.49658935	     21.64847411	     46.47381806	      0.00000000	      0.00000000	     28.16966023	    -16.81568071	     -4.36208023	     49.74901949	     47.31226969	      0.00000000	      0.00000000
     39.43507143	     -7.51829972	     -5.81661986	     -9.13986059	      0.93568741	      0.92830050	      0.43036901	     27.74536893	     -3.22595735	     -1.22223149	     49.97755779	     49.97755779	      5.69737768	    -12.52239446	     -5.79044959	     14.81517837	     -6.69952759	     -7.81990010	     24.45117505	     24.45117505	     17.86112124	    -14.87616836	      6.11032081	     -9.75091897	      6.10252234	      2.41010718	     -5.19064688	    -12.81748550	    -12.70121707	     23.13642322	     46.43482565	      0.00000000	      0.00000000	     28.01899741	    -16.69773497	     -7.06254958	     52.76663927	     47.54151525	      0.00000000	      0.00000000
     39.45371429	     -7.83695933	     -5.82037800	     -9.79715091	      0.93422919	      0.93031172	      0.43238579	     27.85210032	     -2.83028560	     -1.65619919	     45.57361711	     45.57361711	      6.32643625	    -10.88371209	     -6.74547487	     13.78751427	     -6.83122309	     -8.67348838	     22.68824331	     22.68824331	     17.51385153	    -14.32074892	      6.22013844	     -9.60320464	      6.14403457	      2.53408511	     -6.56295927	    -12.87958836	    -12.66090514	     23.13009831	     46.42750041	      0.00000000	      0.00000000	     28.47195433	    -16.86482332	     -7.72595729	     53.86728572	     47.59899359	      0.00000000	      0.00000000
     39.47235714	     -8.28599399	     -5.93278308	    -10.39598822	      0.93269133	      0.93176859	      0.43472690	     27.77860294	     -2.18373448	     -2.10990361	     40.61288551	     40.61288551	      6.90543297	     -8.90929759	     -6.84412605	     13.01875280	     -7.10791701	     -9.37623093	     21.15345249	     21.15345249	     17.24777836	    -13.78903416	      6.38148874	     -9.35480184	      6.43145837	      2.56197404	     -7.72399784	    -12.88506498	    -12.68929730	     23.10708367	     46.42199313	      0.00000000	      0.00000000	     28.88343735	    -17.14131894	     -8.14996454	     54.73933745	     47.64279798	      0.00000000	      0.00000000
